<svg width="20" height="20" viewBox="0 0 20 20" fill="none" xmlns="http://www.w3.org/2000/svg">
<path fill-rule="evenodd" clip-rule="evenodd" d="M15.5858 1.00375L12.9474 1C9.98322 1 8.06766 2.73871 8.06766 5.42982V7.47227H5.41486C5.18563 7.47227 5 7.63668 5 7.83949V10.7988C5 11.0016 5.18584 11.1658 5.41486 11.1658H8.06766V18.633C8.06766 18.8358 8.25329 19 8.48252 19H11.9437C12.1729 19 12.3585 18.8356 12.3585 18.633V11.1658H15.4603C15.6895 11.1658 15.8751 11.0016 15.8751 10.7988L15.8764 7.83949C15.8764 7.74211 15.8326 7.64886 15.7549 7.57994C15.6772 7.51103 15.5714 7.47227 15.4613 7.47227H12.3585V5.74086C12.3585 4.90868 12.5827 4.48622 13.808 4.48622L15.5853 4.48566C15.8144 4.48566 16 4.32124 16 4.11863V1.37077C16 1.16835 15.8146 1.00412 15.5858 1.00375Z" fill="white"/>
</svg>
